<?xml version="1.0" encoding="UTF-8"?><svg xmlns="http://www.w3.org/2000/svg" xmlns:xlink="http://www.w3.org/1999/xlink" fill-opacity="1" color-rendering="auto" color-interpolation="auto" stroke="black" text-rendering="auto" stroke-linecap="square" width="568" stroke-miterlimit="10" stroke-opacity="1" shape-rendering="auto" fill="black" stroke-dasharray="none" font-weight="normal" stroke-width="1" height="236" font-family="'Dialog'" font-style="normal" stroke-linejoin="miter" font-size="12" stroke-dashoffset="0" image-rendering="auto">
  <!--Generated by ySVG-->
  <defs id="genericDefs"/>
  <g>
    <defs id="defs1">
      <clipPath clipPathUnits="userSpaceOnUse" id="clipPath1">
        <path d="M0 0 L568 0 L568 236 L0 236 L0 0 Z"/>
      </clipPath>
      <clipPath clipPathUnits="userSpaceOnUse" id="clipPath2">
        <path d="M91 132 L659 132 L659 368 L91 368 L91 132 Z"/>
      </clipPath>
    </defs>
    <g fill="white" transform="translate(-91,-132)" stroke="white">
      <rect x="91" width="568" height="236" y="132" clip-path="url(#clipPath2)" stroke="none"/>
    </g>
    <g stroke-miterlimit="1.45" font-family="sans-serif" transform="matrix(1,0,0,1,-91,-132)" stroke-linecap="butt">
      <text x="116.1992" xml:space="preserve" y="190.6543" clip-path="url(#clipPath2)" stroke="none">Collectors</text>
      <rect fill="none" x="106" width="80" height="57" y="158" clip-path="url(#clipPath2)"/>
      <text x="367.166" xml:space="preserve" y="190.6543" clip-path="url(#clipPath2)" stroke="none">RT</text>
      <rect fill="none" x="335" width="80" height="57" y="158" clip-path="url(#clipPath2)"/>
      <text x="586.665" xml:space="preserve" y="190.6543" clip-path="url(#clipPath2)" stroke="none">Neo4j</text>
      <rect fill="none" x="564" width="80" height="57" y="158" clip-path="url(#clipPath2)"/>
      <text x="362.0127" xml:space="preserve" y="328.6543" clip-path="url(#clipPath2)" stroke="none">Riak</text>
      <rect fill="none" x="335" width="80" height="57" y="296" clip-path="url(#clipPath2)"/>
      <path fill="none" d="M186 186.5 L327 186.5" clip-path="url(#clipPath2)"/>
      <path d="M335 186.5 L323 181.5 L326 186.5 L323 191.5 Z" clip-path="url(#clipPath2)" stroke="none"/>
      <text x="242.8779" xml:space="preserve" y="160.6543" clip-path="url(#clipPath2)" stroke="none">AMQP</text>
      <path fill="none" d="M423 186.5 L556 186.5" clip-path="url(#clipPath2)"/>
      <path d="M415 186.5 L427 191.5 L424 186.5 L427 181.5 Z" clip-path="url(#clipPath2)" stroke="none"/>
      <path d="M564 186.5 L552 181.5 L555 186.5 L552 191.5 Z" clip-path="url(#clipPath2)" stroke="none"/>
      <path fill="none" d="M186 210.6048 L328.148 296.2661" clip-path="url(#clipPath2)"/>
      <path d="M335 300.3952 L327.3027 289.919 L327.2915 295.7499 L322.1413 298.484 Z" clip-path="url(#clipPath2)" stroke="none"/>
      <text x="226.0679" xml:space="preserve" y="283.2475" clip-path="url(#clipPath2)" stroke="none">HTTP</text>
      <path fill="none" d="M375 223 L375 288" clip-path="url(#clipPath2)"/>
      <path d="M375 215 L370 227 L375 224 L380 227 Z" clip-path="url(#clipPath2)" stroke="none"/>
      <path d="M375 296 L380 284 L375 287 L370 284 Z" clip-path="url(#clipPath2)" stroke="none"/>
    </g>
  </g>
</svg>
